<?xml version="1.0" encoding="UTF-8" standalone="no"?>
<!DOCTYPE svg PUBLIC "-//W3C//DTD SVG 1.1//EN"
 "http://www.w3.org/Graphics/SVG/1.1/DTD/svg11.dtd">
<!-- Generated by graphviz version 2.43.0 (0)
 -->
<!-- Title: %3 Pages: 1 -->
<svg width="503pt" height="813pt"
 viewBox="0.00 0.00 503.22 813.00" xmlns="http://www.w3.org/2000/svg" xmlns:xlink="http://www.w3.org/1999/xlink">
<g id="graph0" class="graph" transform="scale(1 1) rotate(0) translate(4 809)">
<title>%3</title>
<polygon fill="url(#bg_pattern)" stroke="transparent" points="-4,4 -4,-809 499.22,-809 499.22,4 -4,4"/>
<!-- start -->
<g id="node1" class="node">
<title>start</title>
<ellipse fill="#222222" stroke="#6666ff" stroke-width="3" cx="166.22" cy="-787" rx="38.99" ry="18"/>
<text text-anchor="middle" x="166.22" y="-783.3" font-family="Helvetica, DejaVu Sans, Arial, sans-serif" font-size="14.00" fill="#ffffff">START</text>
</g>
<!-- 140679069275536_1 -->
<g id="node2" class="node">
<title>140679069275536_1</title>
<ellipse fill="#faf4d0" stroke="#c7c19d" stroke-width="3" cx="166.22" cy="-714" rx="44.69" ry="18"/>
<text text-anchor="middle" x="166.22" y="-710.3" font-family="Helvetica, DejaVu Sans, Arial, sans-serif" font-size="14.00" fill="#222222">Jack (1)</text>
</g>
<!-- start&#45;&gt;140679069275536_1 -->
<g id="edge1" class="edge">
<title>start&#45;&gt;140679069275536_1</title>
<path fill="none" stroke="#aaaaff" d="M166.22,-768.81C166.22,-760.79 166.22,-751.05 166.22,-742.07"/>
<polygon fill="#aaaaff" stroke="#aaaaff" points="169.72,-742.03 166.22,-732.03 162.72,-742.03 169.72,-742.03"/>
</g>
<!-- 140676464685776_1 -->
<g id="node3" class="node">
<title>140676464685776_1</title>
<ellipse fill="#c0dfb7" stroke="#8dac84" stroke-width="3" cx="166.22" cy="-627" rx="55.49" ry="18"/>
<text text-anchor="middle" x="166.22" y="-623.3" font-family="Helvetica, DejaVu Sans, Arial, sans-serif" font-size="14.00" fill="#222222">Emma (1)</text>
</g>
<!-- 140679069275536_1&#45;&gt;140676464685776_1 -->
<g id="edge2" class="edge">
<title>140679069275536_1&#45;&gt;140676464685776_1</title>
<path fill="none" stroke="#aaaaff" d="M166.22,-695.8C166.22,-684.16 166.22,-668.55 166.22,-655.24"/>
<polygon fill="#aaaaff" stroke="#aaaaff" points="169.72,-655.18 166.22,-645.18 162.72,-655.18 169.72,-655.18"/>
<g id="a_edge2&#45;label"><a xlink:title="Emma, tell me a joke about goldfish and peanut butter.">
<text text-anchor="middle" x="230.22" y="-666.8" font-family="Helvetica, DejaVu Sans, Arial, sans-serif" font-size="14.00" fill="#fafafa">received_message</text>
</a>
</g>
</g>
<!-- 792efe7b&#45;6ebf&#45;4162&#45;b2a0&#45;6185ad31276c -->
<g id="node4" class="node">
<title>792efe7b&#45;6ebf&#45;4162&#45;b2a0&#45;6185ad31276c</title>
<polygon fill="#eeeeee" stroke="#aaaaaa" points="-0.22,-534.44 52.22,-522 104.66,-534.44 104.61,-554.56 -0.17,-554.56 -0.22,-534.44"/>
<text text-anchor="middle" x="52.22" y="-536.3" font-family="Helvetica, DejaVu Sans, Arial, sans-serif" font-size="14.00" fill="#222222">Ollama</text>
</g>
<!-- 140676464685776_1&#45;&gt;792efe7b&#45;6ebf&#45;4162&#45;b2a0&#45;6185ad31276c -->
<g id="edge3" class="edge">
<title>140676464685776_1&#45;&gt;792efe7b&#45;6ebf&#45;4162&#45;b2a0&#45;6185ad31276c</title>
<path fill="none" stroke="#aaaaff" d="M114.63,-620.29C77.81,-615.02 32.83,-605.75 21.22,-591 14.11,-581.97 19.24,-571.22 27.22,-562.01"/>
<polygon fill="#aaaaff" stroke="#aaaaff" points="29.88,-564.29 34.39,-554.7 24.88,-559.39 29.88,-564.29"/>
<g id="a_edge3&#45;label"><a xlink:title="Here&#39;s one:&#10;&#10;So I was at the pet store buying some food for my goldfish, and I saw they had this special &quot;goldfish&#45;sized&quot; jar of peanut butter. And I&#39;m thinking, &quot;Is that really a thing? Do fish even like peanut butter?&quot; But then I thought, &quot;Hey, it can&#39;t be worse than the time I tried to teach him how to do tricks for a Froot Loop!&quot;&#10;&#10;Your turn, Jack!">
<text text-anchor="middle" x="86.72" y="-579.8" font-family="Helvetica, DejaVu Sans, Arial, sans-serif" font-size="14.00" fill="#fafafa">generate_oai_reply</text>
</a>
</g>
</g>
<!-- 140679069275536_2 -->
<g id="node5" class="node">
<title>140679069275536_2</title>
<ellipse fill="#faf4d0" stroke="#c7c19d" stroke-width="3" cx="199.22" cy="-540" rx="44.69" ry="18"/>
<text text-anchor="middle" x="199.22" y="-536.3" font-family="Helvetica, DejaVu Sans, Arial, sans-serif" font-size="14.00" fill="#222222">Jack (2)</text>
</g>
<!-- 140676464685776_1&#45;&gt;140679069275536_2 -->
<g id="edge5" class="edge">
<title>140676464685776_1&#45;&gt;140679069275536_2</title>
<path fill="none" stroke="#aaaaff" d="M172.9,-608.8C177.49,-596.97 183.68,-581.03 188.9,-567.58"/>
<polygon fill="#aaaaff" stroke="#aaaaff" points="192.31,-568.47 192.66,-557.89 185.78,-565.94 192.31,-568.47"/>
<g id="a_edge5&#45;label"><a xlink:title="Here&#39;s one:&#10;&#10;So I was at the pet store buying some food for my goldfish, and I saw they had this special &quot;goldfish&#45;sized&quot; jar of peanut butter. And I&#39;m thinking, &quot;Is that really a thing? Do fish even like peanut butter?&quot; But then I thought, &quot;Hey, it can&#39;t be worse than the time I tried to teach him how to do tricks for a Froot Loop!&quot;&#10;&#10;Your turn, Jack!">
<text text-anchor="middle" x="249.22" y="-579.8" font-family="Helvetica, DejaVu Sans, Arial, sans-serif" font-size="14.00" fill="#fafafa">received_message</text>
</a>
</g>
</g>
<!-- 792efe7b&#45;6ebf&#45;4162&#45;b2a0&#45;6185ad31276c&#45;&gt;140676464685776_1 -->
<g id="edge4" class="edge">
<title>792efe7b&#45;6ebf&#45;4162&#45;b2a0&#45;6185ad31276c&#45;&gt;140676464685776_1</title>
<path fill="none" stroke="#aaaaff" d="M104.6,-549.28C121.8,-554.39 139.7,-562.65 152.22,-576 158.03,-582.19 161.46,-590.6 163.48,-598.75"/>
<polygon fill="#aaaaff" stroke="#aaaaff" points="160.07,-599.57 165.34,-608.76 166.95,-598.29 160.07,-599.57"/>
</g>
<!-- 1d5e81b7&#45;19d5&#45;4131&#45;ab42&#45;090266b5fcd3 -->
<g id="node6" class="node">
<title>1d5e81b7&#45;19d5&#45;4131&#45;ab42&#45;090266b5fcd3</title>
<polygon fill="#eeeeee" stroke="#aaaaaa" points="27.78,-447.44 80.22,-435 132.66,-447.44 132.61,-467.56 27.83,-467.56 27.78,-447.44"/>
<text text-anchor="middle" x="80.22" y="-449.3" font-family="Helvetica, DejaVu Sans, Arial, sans-serif" font-size="14.00" fill="#222222">Ollama</text>
</g>
<!-- 140679069275536_2&#45;&gt;1d5e81b7&#45;19d5&#45;4131&#45;ab42&#45;090266b5fcd3 -->
<g id="edge6" class="edge">
<title>140679069275536_2&#45;&gt;1d5e81b7&#45;19d5&#45;4131&#45;ab42&#45;090266b5fcd3</title>
<path fill="none" stroke="#aaaaff" d="M160.42,-530.87C118.61,-521.93 57.57,-508.26 54.22,-504 47.55,-495.52 51.44,-485.08 58.04,-475.93"/>
<polygon fill="#aaaaff" stroke="#aaaaff" points="60.94,-477.91 64.64,-467.98 55.56,-473.44 60.94,-477.91"/>
<g id="a_edge6&#45;label"><a xlink:title="That&#39;s great, Emma. Here&#39;s one:&#10;&#10;I was at the park the other day and saw a guy playing fetch with his dog. But when he threw the ball, the dog just sat there staring at it. I&#39;m thinking, &quot;Is this some kind of therapy session?&quot; And then I realized, the guy was actually trying to get the ball back because it was stuck in a tree. I guess you could say he was having a ruff time... (ba&#45;dum&#45;tss)">
<text text-anchor="middle" x="119.72" y="-492.8" font-family="Helvetica, DejaVu Sans, Arial, sans-serif" font-size="14.00" fill="#fafafa">generate_oai_reply</text>
</a>
</g>
</g>
<!-- 140676464685776_2 -->
<g id="node7" class="node">
<title>140676464685776_2</title>
<ellipse fill="#c0dfb7" stroke="#8dac84" stroke-width="3" cx="232.22" cy="-453" rx="55.49" ry="18"/>
<text text-anchor="middle" x="232.22" y="-449.3" font-family="Helvetica, DejaVu Sans, Arial, sans-serif" font-size="14.00" fill="#222222">Emma (2)</text>
</g>
<!-- 140679069275536_2&#45;&gt;140676464685776_2 -->
<g id="edge8" class="edge">
<title>140679069275536_2&#45;&gt;140676464685776_2</title>
<path fill="none" stroke="#aaaaff" d="M205.9,-521.8C210.49,-509.97 216.68,-494.03 221.9,-480.58"/>
<polygon fill="#aaaaff" stroke="#aaaaff" points="225.31,-481.47 225.66,-470.89 218.78,-478.94 225.31,-481.47"/>
<g id="a_edge8&#45;label"><a xlink:title="That&#39;s great, Emma. Here&#39;s one:&#10;&#10;I was at the park the other day and saw a guy playing fetch with his dog. But when he threw the ball, the dog just sat there staring at it. I&#39;m thinking, &quot;Is this some kind of therapy session?&quot; And then I realized, the guy was actually trying to get the ball back because it was stuck in a tree. I guess you could say he was having a ruff time... (ba&#45;dum&#45;tss)">
<text text-anchor="middle" x="281.22" y="-492.8" font-family="Helvetica, DejaVu Sans, Arial, sans-serif" font-size="14.00" fill="#fafafa">received_message</text>
</a>
</g>
</g>
<!-- 1d5e81b7&#45;19d5&#45;4131&#45;ab42&#45;090266b5fcd3&#45;&gt;140679069275536_2 -->
<g id="edge7" class="edge">
<title>1d5e81b7&#45;19d5&#45;4131&#45;ab42&#45;090266b5fcd3&#45;&gt;140679069275536_2</title>
<path fill="none" stroke="#aaaaff" d="M132.46,-460.99C151.33,-465.96 171.37,-474.46 185.22,-489 191.08,-495.15 194.52,-503.55 196.53,-511.7"/>
<polygon fill="#aaaaff" stroke="#aaaaff" points="193.12,-512.52 198.39,-521.72 200.01,-511.25 193.12,-512.52"/>
</g>
<!-- 1a91190f&#45;a83f&#45;4777&#45;acde&#45;613a11c551e0 -->
<g id="node8" class="node">
<title>1a91190f&#45;a83f&#45;4777&#45;acde&#45;613a11c551e0</title>
<polygon fill="#eeeeee" stroke="#aaaaaa" points="65.78,-360.44 118.22,-348 170.66,-360.44 170.61,-380.56 65.83,-380.56 65.78,-360.44"/>
<text text-anchor="middle" x="118.22" y="-362.3" font-family="Helvetica, DejaVu Sans, Arial, sans-serif" font-size="14.00" fill="#222222">Ollama</text>
</g>
<!-- 140676464685776_2&#45;&gt;1a91190f&#45;a83f&#45;4777&#45;acde&#45;613a11c551e0 -->
<g id="edge9" class="edge">
<title>140676464685776_2&#45;&gt;1a91190f&#45;a83f&#45;4777&#45;acde&#45;613a11c551e0</title>
<path fill="none" stroke="#aaaaff" d="M184.83,-443.56C144.94,-435.98 93.41,-424.86 87.22,-417 80.11,-407.97 85.24,-397.22 93.22,-388.01"/>
<polygon fill="#aaaaff" stroke="#aaaaff" points="95.88,-390.29 100.39,-380.7 90.88,-385.39 95.88,-390.29"/>
<g id="a_edge9&#45;label"><a xlink:title="Oh man, that&#39;s a good one! I&#39;m loving the &quot;ruff time&quot; pun!&#10;&#10;Okay, now it&#39;s my turn again. Here&#39;s another joke:&#10;&#10;So I was at the gym and saw this sign that said, &quot;Please do not drop weights.&quot; And I&#39;m thinking, &quot;Are you kidding me? That&#39;s like saying &#39;please don&#39;t breathe in a pool&#39; or &#39;please don&#39;t sneeze on an airplane.&#39;&quot; It&#39;s just a given! (laugh)&#10;&#10;Your turn again, Jack!">
<text text-anchor="middle" x="152.72" y="-405.8" font-family="Helvetica, DejaVu Sans, Arial, sans-serif" font-size="14.00" fill="#fafafa">generate_oai_reply</text>
</a>
</g>
</g>
<!-- 140679069275536_3 -->
<g id="node9" class="node">
<title>140679069275536_3</title>
<ellipse fill="#faf4d0" stroke="#c7c19d" stroke-width="3" cx="265.22" cy="-366" rx="44.69" ry="18"/>
<text text-anchor="middle" x="265.22" y="-362.3" font-family="Helvetica, DejaVu Sans, Arial, sans-serif" font-size="14.00" fill="#222222">Jack (3)</text>
</g>
<!-- 140676464685776_2&#45;&gt;140679069275536_3 -->
<g id="edge11" class="edge">
<title>140676464685776_2&#45;&gt;140679069275536_3</title>
<path fill="none" stroke="#aaaaff" d="M238.9,-434.8C243.49,-422.97 249.68,-407.03 254.9,-393.58"/>
<polygon fill="#aaaaff" stroke="#aaaaff" points="258.31,-394.47 258.66,-383.89 251.78,-391.94 258.31,-394.47"/>
<g id="a_edge11&#45;label"><a xlink:title="Oh man, that&#39;s a good one! I&#39;m loving the &quot;ruff time&quot; pun!&#10;&#10;Okay, now it&#39;s my turn again. Here&#39;s another joke:&#10;&#10;So I was at the gym and saw this sign that said, &quot;Please do not drop weights.&quot; And I&#39;m thinking, &quot;Are you kidding me? That&#39;s like saying &#39;please don&#39;t breathe in a pool&#39; or &#39;please don&#39;t sneeze on an airplane.&#39;&quot; It&#39;s just a given! (laugh)&#10;&#10;Your turn again, Jack!">
<text text-anchor="middle" x="314.22" y="-405.8" font-family="Helvetica, DejaVu Sans, Arial, sans-serif" font-size="14.00" fill="#fafafa">received_message</text>
</a>
</g>
</g>
<!-- 1a91190f&#45;a83f&#45;4777&#45;acde&#45;613a11c551e0&#45;&gt;140676464685776_2 -->
<g id="edge10" class="edge">
<title>1a91190f&#45;a83f&#45;4777&#45;acde&#45;613a11c551e0&#45;&gt;140676464685776_2</title>
<path fill="none" stroke="#aaaaff" d="M170.6,-375.28C187.8,-380.39 205.7,-388.65 218.22,-402 224.03,-408.19 227.46,-416.6 229.48,-424.75"/>
<polygon fill="#aaaaff" stroke="#aaaaff" points="226.07,-425.57 231.34,-434.76 232.95,-424.29 226.07,-425.57"/>
</g>
<!-- 1219dd7a&#45;3510&#45;422f&#45;b654&#45;ed67e1ee28d8 -->
<g id="node10" class="node">
<title>1219dd7a&#45;3510&#45;422f&#45;b654&#45;ed67e1ee28d8</title>
<polygon fill="#eeeeee" stroke="#aaaaaa" points="93.78,-273.44 146.22,-261 198.66,-273.44 198.61,-293.56 93.83,-293.56 93.78,-273.44"/>
<text text-anchor="middle" x="146.22" y="-275.3" font-family="Helvetica, DejaVu Sans, Arial, sans-serif" font-size="14.00" fill="#222222">Ollama</text>
</g>
<!-- 140679069275536_3&#45;&gt;1219dd7a&#45;3510&#45;422f&#45;b654&#45;ed67e1ee28d8 -->
<g id="edge12" class="edge">
<title>140679069275536_3&#45;&gt;1219dd7a&#45;3510&#45;422f&#45;b654&#45;ed67e1ee28d8</title>
<path fill="none" stroke="#aaaaff" d="M226.42,-356.87C184.61,-347.93 123.57,-334.26 120.22,-330 113.55,-321.52 117.44,-311.08 124.04,-301.93"/>
<polygon fill="#aaaaff" stroke="#aaaaff" points="126.94,-303.91 130.64,-293.98 121.56,-299.44 126.94,-303.91"/>
<g id="a_edge12&#45;label"><a xlink:title="Emma, that joke is spot on. Here&#39;s another one:&#10;&#10;I went to the doctor and he said I had a bad case of &quot;patient&#45;itis.&quot; I&#39;m like, &quot;What&#39;s that?&quot; And he says, &quot;It&#39;s a condition where you complain about everything and then just sit there silently when I ask if I can take out your appendix.&quot; (laughs)&#10;&#10;Your turn again!">
<text text-anchor="middle" x="185.72" y="-318.8" font-family="Helvetica, DejaVu Sans, Arial, sans-serif" font-size="14.00" fill="#fafafa">generate_oai_reply</text>
</a>
</g>
</g>
<!-- 140676464685776_3 -->
<g id="node11" class="node">
<title>140676464685776_3</title>
<ellipse fill="#c0dfb7" stroke="#8dac84" stroke-width="3" cx="298.22" cy="-279" rx="55.49" ry="18"/>
<text text-anchor="middle" x="298.22" y="-275.3" font-family="Helvetica, DejaVu Sans, Arial, sans-serif" font-size="14.00" fill="#222222">Emma (3)</text>
</g>
<!-- 140679069275536_3&#45;&gt;140676464685776_3 -->
<g id="edge14" class="edge">
<title>140679069275536_3&#45;&gt;140676464685776_3</title>
<path fill="none" stroke="#aaaaff" d="M271.9,-347.8C276.49,-335.97 282.68,-320.03 287.9,-306.58"/>
<polygon fill="#aaaaff" stroke="#aaaaff" points="291.31,-307.47 291.66,-296.89 284.78,-304.94 291.31,-307.47"/>
<g id="a_edge14&#45;label"><a xlink:title="Emma, that joke is spot on. Here&#39;s another one:&#10;&#10;I went to the doctor and he said I had a bad case of &quot;patient&#45;itis.&quot; I&#39;m like, &quot;What&#39;s that?&quot; And he says, &quot;It&#39;s a condition where you complain about everything and then just sit there silently when I ask if I can take out your appendix.&quot; (laughs)&#10;&#10;Your turn again!">
<text text-anchor="middle" x="347.22" y="-318.8" font-family="Helvetica, DejaVu Sans, Arial, sans-serif" font-size="14.00" fill="#fafafa">received_message</text>
</a>
</g>
</g>
<!-- 1219dd7a&#45;3510&#45;422f&#45;b654&#45;ed67e1ee28d8&#45;&gt;140679069275536_3 -->
<g id="edge13" class="edge">
<title>1219dd7a&#45;3510&#45;422f&#45;b654&#45;ed67e1ee28d8&#45;&gt;140679069275536_3</title>
<path fill="none" stroke="#aaaaff" d="M198.46,-286.99C217.33,-291.96 237.37,-300.46 251.22,-315 257.08,-321.15 260.52,-329.55 262.53,-337.7"/>
<polygon fill="#aaaaff" stroke="#aaaaff" points="259.12,-338.52 264.39,-347.72 266.01,-337.25 259.12,-338.52"/>
</g>
<!-- a08fb88c&#45;7d35&#45;4365&#45;87b2&#45;458b87ea90b7 -->
<g id="node12" class="node">
<title>a08fb88c&#45;7d35&#45;4365&#45;87b2&#45;458b87ea90b7</title>
<polygon fill="#eeeeee" stroke="#aaaaaa" points="131.78,-186.44 184.22,-174 236.66,-186.44 236.61,-206.56 131.83,-206.56 131.78,-186.44"/>
<text text-anchor="middle" x="184.22" y="-188.3" font-family="Helvetica, DejaVu Sans, Arial, sans-serif" font-size="14.00" fill="#222222">Ollama</text>
</g>
<!-- 140676464685776_3&#45;&gt;a08fb88c&#45;7d35&#45;4365&#45;87b2&#45;458b87ea90b7 -->
<g id="edge15" class="edge">
<title>140676464685776_3&#45;&gt;a08fb88c&#45;7d35&#45;4365&#45;87b2&#45;458b87ea90b7</title>
<path fill="none" stroke="#aaaaff" d="M250.83,-269.56C210.94,-261.98 159.41,-250.86 153.22,-243 146.11,-233.97 151.24,-223.22 159.22,-214.01"/>
<polygon fill="#aaaaff" stroke="#aaaaff" points="161.88,-216.29 166.39,-206.7 156.88,-211.39 161.88,-216.29"/>
<g id="a_edge15&#45;label"><a xlink:title="Oh man, that one is hilarious! I love the doctor&#39;s deadpan delivery.&#10;&#10;Alright, now it&#39;s my turn again. But before I tell a joke, I have to hear one more from you... or should I say, JACK!&#10;&#10;FINISH!">
<text text-anchor="middle" x="218.72" y="-231.8" font-family="Helvetica, DejaVu Sans, Arial, sans-serif" font-size="14.00" fill="#fafafa">generate_oai_reply</text>
</a>
</g>
</g>
<!-- 140679069275536_4 -->
<g id="node13" class="node">
<title>140679069275536_4</title>
<ellipse fill="#faf4d0" stroke="#c7c19d" stroke-width="3" cx="331.22" cy="-192" rx="44.69" ry="18"/>
<text text-anchor="middle" x="331.22" y="-188.3" font-family="Helvetica, DejaVu Sans, Arial, sans-serif" font-size="14.00" fill="#222222">Jack (4)</text>
</g>
<!-- 140676464685776_3&#45;&gt;140679069275536_4 -->
<g id="edge17" class="edge">
<title>140676464685776_3&#45;&gt;140679069275536_4</title>
<path fill="none" stroke="#aaaaff" d="M304.9,-260.8C309.49,-248.97 315.68,-233.03 320.9,-219.58"/>
<polygon fill="#aaaaff" stroke="#aaaaff" points="324.31,-220.47 324.66,-209.89 317.78,-217.94 324.31,-220.47"/>
<g id="a_edge17&#45;label"><a xlink:title="Oh man, that one is hilarious! I love the doctor&#39;s deadpan delivery.&#10;&#10;Alright, now it&#39;s my turn again. But before I tell a joke, I have to hear one more from you... or should I say, JACK!&#10;&#10;FINISH!">
<text text-anchor="middle" x="380.22" y="-231.8" font-family="Helvetica, DejaVu Sans, Arial, sans-serif" font-size="14.00" fill="#fafafa">received_message</text>
</a>
</g>
</g>
<!-- a08fb88c&#45;7d35&#45;4365&#45;87b2&#45;458b87ea90b7&#45;&gt;140676464685776_3 -->
<g id="edge16" class="edge">
<title>a08fb88c&#45;7d35&#45;4365&#45;87b2&#45;458b87ea90b7&#45;&gt;140676464685776_3</title>
<path fill="none" stroke="#aaaaff" d="M236.6,-201.28C253.8,-206.39 271.7,-214.65 284.22,-228 290.03,-234.19 293.46,-242.6 295.48,-250.75"/>
<polygon fill="#aaaaff" stroke="#aaaaff" points="292.07,-251.57 297.34,-260.76 298.95,-250.29 292.07,-251.57"/>
</g>
<!-- 1725772309.580274 -->
<g id="node14" class="node">
<title>1725772309.580274</title>
<polygon fill="#eeeeee" stroke="#aaaaaa" points="399.7,-97.54 399.7,-112.46 359.58,-123 302.85,-123 262.74,-112.46 262.74,-97.54 302.85,-87 359.58,-87 399.7,-97.54"/>
<text text-anchor="middle" x="331.22" y="-101.3" font-family="Helvetica, DejaVu Sans, Arial, sans-serif" font-size="14.00" fill="#222222">Termination</text>
</g>
<!-- 140679069275536_4&#45;&gt;1725772309.580274 -->
<g id="edge18" class="edge">
<title>140679069275536_4&#45;&gt;1725772309.580274</title>
<path fill="none" stroke="#aaaaff" d="M331.22,-173.8C331.22,-162.16 331.22,-146.55 331.22,-133.24"/>
<polygon fill="#aaaaff" stroke="#aaaaff" points="334.72,-133.18 331.22,-123.18 327.72,-133.18 334.72,-133.18"/>
<text text-anchor="middle" x="389.22" y="-144.8" font-family="Helvetica, DejaVu Sans, Arial, sans-serif" font-size="14.00" fill="#fafafa">Max turns hit (3)</text>
</g>
<!-- 1725772309.581046 -->
<g id="node15" class="node">
<title>1725772309.581046</title>
<polygon fill="#eeeeee" stroke="#aaaaaa" points="421.78,-36 277.72,-36 240.66,0 384.72,0 421.78,-36"/>
<text text-anchor="middle" x="331.22" y="-14.3" font-family="Helvetica, DejaVu Sans, Arial, sans-serif" font-size="14.00" fill="#222222">Summarize</text>
</g>
<!-- 1725772309.580274&#45;&gt;1725772309.581046 -->
<g id="edge19" class="edge">
<title>1725772309.580274&#45;&gt;1725772309.581046</title>
<path fill="none" stroke="#aaaaff" d="M331.22,-86.8C331.22,-75.16 331.22,-59.55 331.22,-46.24"/>
<polygon fill="#aaaaff" stroke="#aaaaff" points="334.72,-46.18 331.22,-36.18 327.72,-46.18 334.72,-46.18"/>
<g id="a_edge19&#45;label"><a xlink:title="Oh man, that one is hilarious! I love the doctor&#39;s deadpan delivery.&#10;&#10;Alright, now it&#39;s my turn again. But before I tell a joke, I have to hear one more from you... or should I say, JACK!&#10;&#10;FINISH!">
<text text-anchor="middle" x="413.22" y="-57.8" font-family="Helvetica, DejaVu Sans, Arial, sans-serif" font-size="14.00" fill="#fafafa">_last_msg_as_summary</text>
</a>
</g>
</g>
</g>
<defs><pattern height="40" width="40" id="bg_pattern" patternUnits="userSpaceOnUse"><rect x="0" y="0" width="40" height="40" fill="#222222" /><circle cx="15" cy="15" r="14" stroke="#2A2A2A" stroke-width="1" fill="none" /><text x="7" y="19" font-family="Arial" font-size="12" fill="#2A2A2A">AG</text></pattern></defs>
</svg>
