<?xml version="1.0" encoding="UTF-8" standalone="no"?>
<!DOCTYPE svg PUBLIC "-//W3C//DTD SVG 1.1//EN"
 "http://www.w3.org/Graphics/SVG/1.1/DTD/svg11.dtd">
<!-- Generated by graphviz version 2.43.0 (0)
 -->
<!-- Title: %3 Pages: 1 -->
<svg width="562pt" height="726pt"
 viewBox="0.00 0.00 561.50 726.00" xmlns="http://www.w3.org/2000/svg" xmlns:xlink="http://www.w3.org/1999/xlink">
<g id="graph0" class="graph" transform="scale(1 1) rotate(0) translate(4 722)">
<title>%3</title>
<polygon fill="url(#bg_pattern)" stroke="transparent" points="-4,4 -4,-722 557.5,-722 557.5,4 -4,4"/>
<!-- start -->
<g id="node1" class="node">
<title>start</title>
<ellipse fill="#222222" stroke="#6666ff" stroke-width="3" cx="197.5" cy="-700" rx="38.99" ry="18"/>
<text text-anchor="middle" x="197.5" y="-696.3" font-family="Helvetica, DejaVu Sans, Arial, sans-serif" font-size="14.00" fill="#ffffff">START</text>
</g>
<!-- 139876602029648_1 -->
<g id="node2" class="node">
<title>139876602029648_1</title>
<ellipse fill="#c0dfb7" stroke="#8dac84" stroke-width="3" cx="197.5" cy="-627" rx="76.09" ry="18"/>
<text text-anchor="middle" x="197.5" y="-623.3" font-family="Helvetica, DejaVu Sans, Arial, sans-serif" font-size="14.00" fill="#222222">user_proxy (1)</text>
</g>
<!-- start&#45;&gt;139876602029648_1 -->
<g id="edge1" class="edge">
<title>start&#45;&gt;139876602029648_1</title>
<path fill="none" stroke="#aaaaff" d="M197.5,-681.81C197.5,-673.79 197.5,-664.05 197.5,-655.07"/>
<polygon fill="#aaaaff" stroke="#aaaaff" points="201,-655.03 197.5,-645.03 194,-655.03 201,-655.03"/>
</g>
<!-- 139879207181392_1 -->
<g id="node3" class="node">
<title>139879207181392_1</title>
<ellipse fill="#faf4d0" stroke="#c7c19d" stroke-width="3" cx="197.5" cy="-540" rx="60.39" ry="18"/>
<text text-anchor="middle" x="197.5" y="-536.3" font-family="Helvetica, DejaVu Sans, Arial, sans-serif" font-size="14.00" fill="#222222">chatbot (1)</text>
</g>
<!-- 139876602029648_1&#45;&gt;139879207181392_1 -->
<g id="edge2" class="edge">
<title>139876602029648_1&#45;&gt;139879207181392_1</title>
<path fill="none" stroke="#aaaaff" d="M197.5,-608.8C197.5,-597.16 197.5,-581.55 197.5,-568.24"/>
<polygon fill="#aaaaff" stroke="#aaaaff" points="201,-568.18 197.5,-558.18 194,-568.18 201,-568.18"/>
<g id="a_edge2&#45;label"><a xlink:title="How much is 123.45 EUR in USD?">
<text text-anchor="middle" x="261.5" y="-579.8" font-family="Helvetica, DejaVu Sans, Arial, sans-serif" font-size="14.00" fill="#fafafa">received_message</text>
</a>
</g>
</g>
<!-- 65a3ef41&#45;1f29&#45;480c&#45;8aec&#45;c7c9ecdf8570 -->
<g id="node4" class="node">
<title>65a3ef41&#45;1f29&#45;480c&#45;8aec&#45;c7c9ecdf8570</title>
<polygon fill="#eeeeee" stroke="#aaaaaa" points="16.06,-447.44 68.5,-435 120.94,-447.44 120.89,-467.56 16.11,-467.56 16.06,-447.44"/>
<text text-anchor="middle" x="68.5" y="-449.3" font-family="Helvetica, DejaVu Sans, Arial, sans-serif" font-size="14.00" fill="#222222">Ollama</text>
</g>
<!-- 139879207181392_1&#45;&gt;65a3ef41&#45;1f29&#45;480c&#45;8aec&#45;c7c9ecdf8570 -->
<g id="edge3" class="edge">
<title>139879207181392_1&#45;&gt;65a3ef41&#45;1f29&#45;480c&#45;8aec&#45;c7c9ecdf8570</title>
<path fill="none" stroke="#aaaaff" d="M142.07,-532.73C106.03,-527.38 63.71,-518.24 52.5,-504 46.39,-496.24 48.32,-486.09 52.58,-476.97"/>
<polygon fill="#aaaaff" stroke="#aaaaff" points="55.78,-478.41 57.62,-467.97 49.68,-474.98 55.78,-478.41"/>
<g id="a_edge3&#45;label"><a xlink:title="ChatCompletion(id=&#39;2024&#45;09&#45;08T04:06:03.880156481Z&#39;, choices=[Choice(finish_reason=&#39;tool_calls&#39;, index=0, logprobs=None, message=ChatCompletionMessage(content=&#39;&#39;, refusal=None, role=&#39;assistant&#39;, function_call=None, tool_calls=[ChatCompletionMessageToolCall(id=&#39;ollama_manual_func_6674&#39;, function=Function(arguments=&#39;{&quot;base_amount&quot;: 123.45, &quot;base_currency&quot;: &quot;EUR&quot;, &quot;quote_currency&quot;: &quot;USD&quot;}&#39;, name=&#39;currency_calculator&#39;), type=&#39;function&#39;)]))], created=1725768363, model=&#39;llama3.1:8b&#45;instruct&#45;q8_0&#39;, object=&#39;chat.completion&#39;, service_tier=None, system_fingerprint=None, usage=CompletionUsage(completion_tokens=37, prompt_tokens=561, total_tokens=598), cost=0)">
<text text-anchor="middle" x="118" y="-492.8" font-family="Helvetica, DejaVu Sans, Arial, sans-serif" font-size="14.00" fill="#fafafa">generate_oai_reply</text>
</a>
</g>
</g>
<!-- 139876602029648_2 -->
<g id="node5" class="node">
<title>139876602029648_2</title>
<ellipse fill="#c0dfb7" stroke="#8dac84" stroke-width="3" cx="230.5" cy="-453" rx="76.09" ry="18"/>
<text text-anchor="middle" x="230.5" y="-449.3" font-family="Helvetica, DejaVu Sans, Arial, sans-serif" font-size="14.00" fill="#222222">user_proxy (2)</text>
</g>
<!-- 139879207181392_1&#45;&gt;139876602029648_2 -->
<g id="edge5" class="edge">
<title>139879207181392_1&#45;&gt;139876602029648_2</title>
<path fill="none" stroke="#aaaaff" d="M204.18,-521.8C208.74,-510.05 214.88,-494.24 220.08,-480.84"/>
<polygon fill="#aaaaff" stroke="#aaaaff" points="223.48,-481.76 223.83,-471.18 216.95,-479.23 223.48,-481.76"/>
<g id="a_edge5&#45;label"><a xlink:title="&#10;Tool call: {&quot;arguments&quot;: &quot;{&quot;base_amount&quot;: 123.45, &quot;base_currency&quot;: &quot;EUR&quot;, &quot;quote_currency&quot;: &quot;USD&quot;}&quot;, &quot;name&quot;: &quot;currency_calculator&quot;}">
<text text-anchor="middle" x="280.5" y="-492.8" font-family="Helvetica, DejaVu Sans, Arial, sans-serif" font-size="14.00" fill="#fafafa">received_message</text>
</a>
</g>
</g>
<!-- 65a3ef41&#45;1f29&#45;480c&#45;8aec&#45;c7c9ecdf8570&#45;&gt;139879207181392_1 -->
<g id="edge4" class="edge">
<title>65a3ef41&#45;1f29&#45;480c&#45;8aec&#45;c7c9ecdf8570&#45;&gt;139879207181392_1</title>
<path fill="none" stroke="#aaaaff" d="M120.86,-464.79C146.75,-471.11 174.38,-479.67 183.5,-489 189.44,-495.07 192.9,-503.45 194.91,-511.61"/>
<polygon fill="#aaaaff" stroke="#aaaaff" points="191.5,-512.44 196.75,-521.64 198.39,-511.17 191.5,-512.44"/>
</g>
<!-- 1725768363.885956 -->
<g id="node6" class="node">
<title>1725768363.885956</title>
<polygon fill="#eeeeee" stroke="#aaaaaa" points="139,-378 0,-378 0,-354 139,-354 151,-366 139,-378"/>
<text text-anchor="middle" x="75.5" y="-362.3" font-family="Helvetica, DejaVu Sans, Arial, sans-serif" font-size="14.00" fill="#222222">currency_calculator</text>
</g>
<!-- 139876602029648_2&#45;&gt;1725768363.885956 -->
<g id="edge6" class="edge">
<title>139876602029648_2&#45;&gt;1725768363.885956</title>
<path fill="none" stroke="#aaaaff" d="M170.63,-441.78C116.39,-432.38 44.61,-419.53 42.5,-417 36.05,-409.24 39.23,-400.18 45.66,-391.92"/>
<polygon fill="#aaaaff" stroke="#aaaaff" points="48.45,-394.06 52.62,-384.32 43.29,-389.34 48.45,-394.06"/>
<g id="a_edge6&#45;label"><a xlink:title="135.80 USD">
<text text-anchor="middle" x="129.5" y="-405.8" font-family="Helvetica, DejaVu Sans, Arial, sans-serif" font-size="14.00" fill="#fafafa">generate_tool_calls_reply</text>
</a>
</g>
</g>
<!-- 139879207181392_2 -->
<g id="node7" class="node">
<title>139879207181392_2</title>
<ellipse fill="#faf4d0" stroke="#c7c19d" stroke-width="3" cx="263.5" cy="-366" rx="60.39" ry="18"/>
<text text-anchor="middle" x="263.5" y="-362.3" font-family="Helvetica, DejaVu Sans, Arial, sans-serif" font-size="14.00" fill="#222222">chatbot (2)</text>
</g>
<!-- 139876602029648_2&#45;&gt;139879207181392_2 -->
<g id="edge8" class="edge">
<title>139876602029648_2&#45;&gt;139879207181392_2</title>
<path fill="none" stroke="#aaaaff" d="M237.18,-434.8C241.74,-423.05 247.88,-407.24 253.08,-393.84"/>
<polygon fill="#aaaaff" stroke="#aaaaff" points="256.48,-394.76 256.83,-384.18 249.95,-392.23 256.48,-394.76"/>
<g id="a_edge8&#45;label"><a xlink:title="135.80 USD">
<text text-anchor="middle" x="313.5" y="-405.8" font-family="Helvetica, DejaVu Sans, Arial, sans-serif" font-size="14.00" fill="#fafafa">received_message</text>
</a>
</g>
</g>
<!-- 1725768363.885956&#45;&gt;139876602029648_2 -->
<g id="edge7" class="edge">
<title>1725768363.885956&#45;&gt;139876602029648_2</title>
<path fill="none" stroke="#aaaaff" d="M151.16,-371.09C174.7,-375.9 199.04,-385.05 216.5,-402 222.75,-408.07 226.28,-416.69 228.25,-425.06"/>
<polygon fill="#aaaaff" stroke="#aaaaff" points="224.81,-425.71 229.95,-434.97 231.71,-424.52 224.81,-425.71"/>
</g>
<!-- 2fbd986f&#45;dfd4&#45;4390&#45;8071&#45;8caa9d7c97a8 -->
<g id="node8" class="node">
<title>2fbd986f&#45;dfd4&#45;4390&#45;8071&#45;8caa9d7c97a8</title>
<polygon fill="#eeeeee" stroke="#aaaaaa" points="82.06,-273.44 134.5,-261 186.94,-273.44 186.89,-293.56 82.11,-293.56 82.06,-273.44"/>
<text text-anchor="middle" x="134.5" y="-275.3" font-family="Helvetica, DejaVu Sans, Arial, sans-serif" font-size="14.00" fill="#222222">Ollama</text>
</g>
<!-- 139879207181392_2&#45;&gt;2fbd986f&#45;dfd4&#45;4390&#45;8071&#45;8caa9d7c97a8 -->
<g id="edge9" class="edge">
<title>139879207181392_2&#45;&gt;2fbd986f&#45;dfd4&#45;4390&#45;8071&#45;8caa9d7c97a8</title>
<path fill="none" stroke="#aaaaff" d="M212.99,-355.97C173.58,-348.41 124.53,-337.66 118.5,-330 112.39,-322.24 114.32,-312.09 118.58,-302.97"/>
<polygon fill="#aaaaff" stroke="#aaaaff" points="121.78,-304.41 123.62,-293.97 115.68,-300.98 121.78,-304.41"/>
<g id="a_edge9&#45;label"><a xlink:title="The result is $135.80 USD.">
<text text-anchor="middle" x="184" y="-318.8" font-family="Helvetica, DejaVu Sans, Arial, sans-serif" font-size="14.00" fill="#fafafa">generate_oai_reply</text>
</a>
</g>
</g>
<!-- 139876602029648_3 -->
<g id="node9" class="node">
<title>139876602029648_3</title>
<ellipse fill="#c0dfb7" stroke="#8dac84" stroke-width="3" cx="296.5" cy="-279" rx="76.09" ry="18"/>
<text text-anchor="middle" x="296.5" y="-275.3" font-family="Helvetica, DejaVu Sans, Arial, sans-serif" font-size="14.00" fill="#222222">user_proxy (3)</text>
</g>
<!-- 139879207181392_2&#45;&gt;139876602029648_3 -->
<g id="edge11" class="edge">
<title>139879207181392_2&#45;&gt;139876602029648_3</title>
<path fill="none" stroke="#aaaaff" d="M270.18,-347.8C274.74,-336.05 280.88,-320.24 286.08,-306.84"/>
<polygon fill="#aaaaff" stroke="#aaaaff" points="289.48,-307.76 289.83,-297.18 282.95,-305.23 289.48,-307.76"/>
<g id="a_edge11&#45;label"><a xlink:title="The result is $135.80 USD.">
<text text-anchor="middle" x="346.5" y="-318.8" font-family="Helvetica, DejaVu Sans, Arial, sans-serif" font-size="14.00" fill="#fafafa">received_message</text>
</a>
</g>
</g>
<!-- 2fbd986f&#45;dfd4&#45;4390&#45;8071&#45;8caa9d7c97a8&#45;&gt;139879207181392_2 -->
<g id="edge10" class="edge">
<title>2fbd986f&#45;dfd4&#45;4390&#45;8071&#45;8caa9d7c97a8&#45;&gt;139879207181392_2</title>
<path fill="none" stroke="#aaaaff" d="M186.86,-290.79C212.75,-297.11 240.38,-305.67 249.5,-315 255.44,-321.07 258.9,-329.45 260.91,-337.61"/>
<polygon fill="#aaaaff" stroke="#aaaaff" points="257.5,-338.44 262.75,-347.64 264.39,-337.17 257.5,-338.44"/>
</g>
<!-- 1725768364.314839 -->
<g id="node10" class="node">
<title>1725768364.314839</title>
<polygon fill="#eeeeee" stroke="#aaaaaa" points="364.98,-184.54 364.98,-199.46 324.86,-210 268.14,-210 228.02,-199.46 228.02,-184.54 268.14,-174 324.86,-174 364.98,-184.54"/>
<text text-anchor="middle" x="296.5" y="-188.3" font-family="Helvetica, DejaVu Sans, Arial, sans-serif" font-size="14.00" fill="#222222">Termination</text>
</g>
<!-- 139876602029648_3&#45;&gt;1725768364.314839 -->
<g id="edge12" class="edge">
<title>139876602029648_3&#45;&gt;1725768364.314839</title>
<path fill="none" stroke="#aaaaff" d="M296.5,-260.8C296.5,-249.16 296.5,-233.55 296.5,-220.24"/>
<polygon fill="#aaaaff" stroke="#aaaaff" points="300,-220.18 296.5,-210.18 293,-220.18 300,-220.18"/>
<text text-anchor="middle" x="425" y="-231.8" font-family="Helvetica, DejaVu Sans, Arial, sans-serif" font-size="14.00" fill="#fafafa">check_termination_and_human_reply</text>
</g>
<!-- 1725768368.682639 -->
<g id="node12" class="node">
<title>1725768368.682639</title>
<polygon fill="#eeeeee" stroke="#aaaaaa" points="387.06,-123 243,-123 205.94,-87 350,-87 387.06,-123"/>
<text text-anchor="middle" x="296.5" y="-101.3" font-family="Helvetica, DejaVu Sans, Arial, sans-serif" font-size="14.00" fill="#222222">Summarize</text>
</g>
<!-- 1725768364.314839&#45;&gt;1725768368.682639 -->
<g id="edge13" class="edge">
<title>1725768364.314839&#45;&gt;1725768368.682639</title>
<path fill="none" stroke="#aaaaff" d="M296.5,-173.8C296.5,-162.16 296.5,-146.55 296.5,-133.24"/>
<polygon fill="#aaaaff" stroke="#aaaaff" points="300,-133.18 296.5,-123.18 293,-133.18 300,-133.18"/>
<g id="a_edge13&#45;label"><a xlink:title="123.45 EUR is equivalent to 135.80 USD.">
<text text-anchor="middle" x="412" y="-144.8" font-family="Helvetica, DejaVu Sans, Arial, sans-serif" font-size="14.00" fill="#fafafa">_reflection_with_llm_as_summary</text>
</a>
</g>
</g>
<!-- cc60e8a0&#45;088b&#45;4fc0&#45;be7b&#45;51a4164b5ace -->
<g id="node11" class="node">
<title>cc60e8a0&#45;088b&#45;4fc0&#45;be7b&#45;51a4164b5ace</title>
<polygon fill="#eeeeee" stroke="#aaaaaa" points="244.06,-12.44 296.5,0 348.94,-12.44 348.89,-32.56 244.11,-32.56 244.06,-12.44"/>
<text text-anchor="middle" x="296.5" y="-14.3" font-family="Helvetica, DejaVu Sans, Arial, sans-serif" font-size="14.00" fill="#222222">Ollama</text>
</g>
<!-- cc60e8a0&#45;088b&#45;4fc0&#45;be7b&#45;51a4164b5ace&#45;&gt;1725768368.682639 -->
<g id="edge15" class="edge">
<title>cc60e8a0&#45;088b&#45;4fc0&#45;be7b&#45;51a4164b5ace&#45;&gt;1725768368.682639</title>
<path fill="none" stroke="#aaaaff" d="M348.76,-25.03C384.91,-31.46 423.53,-44.27 405.5,-69 396.84,-80.87 384.09,-88.81 370.34,-94.09"/>
<polygon fill="#aaaaff" stroke="#aaaaff" points="369.05,-90.83 360.69,-97.34 371.29,-97.46 369.05,-90.83"/>
</g>
<!-- 1725768368.682639&#45;&gt;cc60e8a0&#45;088b&#45;4fc0&#45;be7b&#45;51a4164b5ace -->
<g id="edge14" class="edge">
<title>1725768368.682639&#45;&gt;cc60e8a0&#45;088b&#45;4fc0&#45;be7b&#45;51a4164b5ace</title>
<path fill="none" stroke="#aaaaff" d="M213.8,-94.79C182.69,-87.78 158.31,-75.48 174.5,-54 188.53,-35.37 211.82,-26.17 234.3,-21.77"/>
<polygon fill="#aaaaff" stroke="#aaaaff" points="234.91,-25.22 244.2,-20.12 233.76,-18.32 234.91,-25.22"/>
<g id="a_edge14&#45;label"><a xlink:title="123.45 EUR is equivalent to 135.80 USD.">
<text text-anchor="middle" x="290" y="-57.8" font-family="Helvetica, DejaVu Sans, Arial, sans-serif" font-size="14.00" fill="#fafafa">_reflection_with_llm_as_summary</text>
</a>
</g>
</g>
</g>
<defs><pattern height="40" width="40" id="bg_pattern" patternUnits="userSpaceOnUse"><rect x="0" y="0" width="40" height="40" fill="#222222" /><circle cx="15" cy="15" r="14" stroke="#2A2A2A" stroke-width="1" fill="none" /><text x="7" y="19" font-family="Arial" font-size="12" fill="#2A2A2A">AG</text></pattern></defs>
</svg>
